<svg xmlns="http://www.w3.org/2000/svg" xmlns:xlink="http://www.w3.org/1999/xlink" width="29" height="35" viewBox="0 0 29 35"><defs><path id="xgt7a" d="M1287.334 1073.864h-16.111v-1.59h16.111zm-8.056-3.182h-8.055v-1.59h8.055zm3.223 6.365h-11.278v-1.592h11.278zm6.444-20.685h-19.333v26.196l2.652-2.096a.81.81 0 0 1 1.14 0l2.652 2.62 2.653-2.62a.811.811 0 0 1 1.139 0l2.653 2.62 2.652-2.62a.81.81 0 0 1 1.14 0l2.652 2.096zm1.611-.795v28.64a.8.8 0 0 1-.805.795.804.804 0 0 1-.57-.233l-3.395-2.682-2.716 2.682a.808.808 0 0 1-1.14 0l-2.652-2.62-2.652 2.62a.808.808 0 0 1-1.14 0l-2.715-2.682-3.395 2.682a.804.804 0 0 1-.57.233.8.8 0 0 1-.805-.795v-28.64a.8.8 0 0 1 .805-.796h20.945a.8.8 0 0 1 .805.796zm6.445-4.773v28.64a.8.8 0 0 1-.806.795.808.808 0 0 1-.57-.233l-3.395-2.682-.063.062v-1.92c.223 0 .424.088.57.233l2.653 2.095v-26.195h-19.334v1.591h-1.61v-2.386a.8.8 0 0 1 .805-.796h20.944a.8.8 0 0 1 .806.796zm-24.167 15.115h-1.611v-7.955h1.611zm14.5 0h-1.611v-7.955h1.611zm-3.222 0h-1.611v-7.955h1.61zm-6.445 0h-3.222v-7.955h3.222zm3.223 0h-1.612v-7.955h1.612z"/></defs><g><g transform="translate(-1268 -1050)"><use fill="#1769ff" xlink:href="#xgt7a"/></g></g></svg>