<svg xmlns="http://www.w3.org/2000/svg" xmlns:xlink="http://www.w3.org/1999/xlink" width="19" height="35" viewBox="0 0 19 35"><defs><path id="pw5la" d="M1288.923 851.854l.004.002-11.083 20.682-.016-.007a.77.77 0 0 1-.703.47.794.794 0 0 1-.792-.796c0-.031.014-.057.017-.087l-.012-.001 1.486-13.436h-7.032a.792.792 0 0 1-.792-.794c0-.088.023-.17.05-.248l-.01-.004 6.333-19.091.01.003a.786.786 0 0 1 .742-.548h7.917c.437 0 .791.357.791.797a.78.78 0 0 1-.05.248l.01.003-3.882 11.68h6.297a.793.793 0 0 1 .715 1.127zm-2.038.464h-6.074a.793.793 0 0 1-.791-.795c0-.088.023-.17.049-.249l-.01-.003 3.883-11.68h-6.246l-5.807 17.5h6.82c.437 0 .79.356.79.796 0 .03-.013.056-.016.087h.012l-1.133 10.248z"/></defs><g><g transform="translate(-1270 -838)"><use fill="#1769ff" xlink:href="#pw5la"/></g></g></svg>