<svg xmlns="http://www.w3.org/2000/svg" xmlns:xlink="http://www.w3.org/1999/xlink" width="34" height="35" viewBox="0 0 34 35"><defs><path id="tnm4a" d="M986.361 846.408c0 2.376-.771 4.353-2.314 5.931-1.544 1.578-3.519 2.368-5.926 2.368-2.408 0-4.367-.79-5.875-2.368-1.51-1.578-2.264-3.555-2.264-5.93 0-2.41.763-4.42 2.29-6.033 1.525-1.612 3.475-2.418 5.849-2.418 2.407 0 4.382.806 5.926 2.418 1.543 1.612 2.314 3.623 2.314 6.032zm-8.698 26.015h-2.747l21.67-33.956h2.797zm26.35-7.687c0 2.376-.764 4.352-2.29 5.93-1.526 1.579-3.493 2.368-5.9 2.368-2.408 0-4.367-.79-5.875-2.367-1.51-1.579-2.264-3.555-2.264-5.931 0-2.41.763-4.42 2.289-6.033 1.526-1.612 3.476-2.418 5.85-2.418 2.407 0 4.374.806 5.9 2.418 1.526 1.612 2.29 3.623 2.29 6.033zm-30.979-18.328c0 1.63.475 2.996 1.424 4.099.95 1.103 2.17 1.654 3.663 1.654 1.492 0 2.73-.551 3.713-1.654.983-1.103 1.475-2.47 1.475-4.099 0-1.696-.483-3.096-1.45-4.2-.966-1.102-2.212-1.654-3.738-1.654-1.493 0-2.714.552-3.663 1.654-.95 1.104-1.424 2.504-1.424 4.2zm17.651 18.328c0 1.629.483 2.995 1.45 4.098.966 1.103 2.195 1.654 3.688 1.654 1.492 0 2.73-.55 3.713-1.654.983-1.103 1.475-2.47 1.475-4.098 0-1.697-.483-3.097-1.45-4.2-.966-1.103-2.212-1.655-3.738-1.655-1.526 0-2.765.552-3.713 1.655-.95 1.103-1.425 2.503-1.425 4.2z"/></defs><g><g transform="translate(-970 -838)"><use fill="#1769ff" xlink:href="#tnm4a"/></g></g></svg>