<svg xmlns="http://www.w3.org/2000/svg" xmlns:xlink="http://www.w3.org/1999/xlink" width="35" height="35" viewBox="0 0 35 35"><defs><path id="omtia" d="M992.272 1081.024c0 .44-.356.796-.795.796h-1.59a.795.795 0 1 1 0-1.591h1.59c.44 0 .795.356.795.795zm-4.771-14.32c0 .44-.357.796-.796.796h-1.59a.795.795 0 1 1 0-1.59h1.59c.44 0 .796.355.796.794zm0 14.32c0 .44-.357.796-.796.796h-1.59a.795.795 0 1 1 0-1.591h1.59c.44 0 .796.356.796.795zm4.771-14.32c0 .44-.356.796-.795.796h-1.59a.795.795 0 1 1 0-1.59h1.59c.44 0 .795.355.795.794zm-9.543 0c0 .44-.356.796-.795.796h-1.59a.795.795 0 1 1 0-1.59h1.59c.439 0 .795.355.795.794zm20.677 5.57c0-.88-.712-1.592-1.59-1.592h-4.772c-.878 0-1.59.713-1.59 1.591v3.182c0 .88.712 1.592 1.59 1.592h4.772c.878 0 1.59-.713 1.59-1.592zm-3.18 6.364h-3.182a3.182 3.182 0 0 1-3.181-3.183v-3.182a3.182 3.182 0 0 1 3.181-3.182h3.181v-3.182a1.59 1.59 0 0 0-1.59-1.59h-25.45a1.59 1.59 0 0 0-1.59 1.59v15.91a1.59 1.59 0 0 0 1.59 1.592h25.45a1.59 1.59 0 0 0 1.59-1.591zm-28.63-15.47a3.152 3.152 0 0 1 1.59-.441h1.383l-.426-1.591h-.957c-.879 0-1.59.712-1.59 1.59zm3.312-5.324l.412 1.539 19.122-5.073-.411-1.535a1.59 1.59 0 0 0-1.948-1.125l-16.05 4.246a1.59 1.59 0 0 0-1.125 1.948zm6.42 4.883h15.369l-1.02-3.807zm16.59-1.591l.425 1.59h.291c.583 0 1.122.17 1.591.442v-.441c0-.879-.712-1.591-1.59-1.591zm7.079 11.137v3.182a3.182 3.182 0 0 1-3.181 3.183v3.182a3.182 3.182 0 0 1-3.182 3.182h-25.448a3.182 3.182 0 0 1-3.181-3.182v-19.093a3.182 3.182 0 0 1 3.18-3.182h.532l-.346-1.29a3.183 3.183 0 0 1 2.25-3.897l16.05-4.245a3.18 3.18 0 0 1 3.896 2.25l1.924 7.182h1.143a3.182 3.182 0 0 1 3.182 3.182v6.364a3.182 3.182 0 0 1 3.18 3.182zm-6.363 1.591a.795.795 0 1 1-1.59.001.795.795 0 0 1 1.59 0zm-1.59 7.16c0 .44-.356.796-.795.796h-1.59a.795.795 0 1 1 0-1.591h1.59c.439 0 .795.356.795.795zm-14.315 0c0 .44-.356.796-.795.796h-1.59a.795.795 0 1 1 0-1.591h1.59c.439 0 .795.356.795.795zm11.134-14.32c0-.44.356-.795.795-.795h1.59a.795.795 0 1 1 0 1.591h-1.59a.795.795 0 0 1-.795-.796zm-15.906 14.32c0 .44-.356.796-.795.796h-1.59a.795.795 0 1 1 0-1.591h1.59c.44 0 .795.356.795.795zm0-14.32c0 .44-.356.796-.795.796h-1.59a.795.795 0 1 1 0-1.59h1.59c.44 0 .795.355.795.794z"/></defs><g><g transform="translate(-970 -1050)"><use fill="#1769ff" xlink:href="#omtia"/></g></g></svg>